<mxfile host="05f8c9b1-713b-49ee-ae7a-5d0a4869e09b" modified="2020-09-18T06:11:36.353Z" agent="5.0 (Windows NT 10.0; Win64; x64) AppleWebKit/537.36 (KHTML, like Gecko) Code/1.49.0 Chrome/83.0.4103.122 Electron/9.2.1 Safari/537.36" etag="Ofnz7nXKhDUzk9jd4NS4" version="13.1.3">
    <diagram id="6hGFLwfOUW9BJ-s0fimq" name="Page-1">
        <mxGraphModel dx="750" dy="1131" grid="1" gridSize="10" guides="1" tooltips="1" connect="1" arrows="1" fold="1" page="1" pageScale="1" pageWidth="800" pageHeight="400" math="0" shadow="0">
            <root>
                <mxCell id="0"/>
                <mxCell id="1" parent="0"/>
                <mxCell id="15" style="edgeStyle=orthogonalEdgeStyle;rounded=0;orthogonalLoop=1;jettySize=auto;html=1;exitX=1;exitY=0.5;exitDx=0;exitDy=0;strokeWidth=4;" parent="1" source="3" target="6" edge="1">
                    <mxGeometry relative="1" as="geometry"/>
                </mxCell>
                <mxCell id="3" value="&lt;span style=&quot;font-size: 20px&quot;&gt;點選新增按鈕&lt;br&gt;&lt;/span&gt;" style="rounded=1;whiteSpace=wrap;html=1;fontFamily=微軟正黑體;fontSize=24;fontStyle=1" parent="1" vertex="1">
                    <mxGeometry x="320" y="100" width="160" height="70" as="geometry"/>
                </mxCell>
                <mxCell id="37" style="edgeStyle=orthogonalEdgeStyle;rounded=0;orthogonalLoop=1;jettySize=auto;html=1;exitX=1;exitY=0.5;exitDx=0;exitDy=0;entryX=0;entryY=0.5;entryDx=0;entryDy=0;strokeWidth=4;" parent="1" source="4" target="3" edge="1">
                    <mxGeometry relative="1" as="geometry"/>
                </mxCell>
                <mxCell id="4" value="&lt;span style=&quot;font-size: 20px&quot;&gt;填入待辦事項&lt;/span&gt;" style="rounded=1;whiteSpace=wrap;html=1;fontFamily=微軟正黑體;fontSize=24;fontStyle=1" parent="1" vertex="1">
                    <mxGeometry x="65" y="100" width="160" height="70" as="geometry"/>
                </mxCell>
                <mxCell id="6" value="&lt;span style=&quot;font-size: 20px&quot;&gt;顯示新增的&lt;br&gt;待辦事項&lt;br&gt;&lt;/span&gt;" style="rounded=1;whiteSpace=wrap;html=1;fontFamily=微軟正黑體;fontSize=24;fontStyle=1" parent="1" vertex="1">
                    <mxGeometry x="575" y="100" width="160" height="70" as="geometry"/>
                </mxCell>
                <mxCell id="38" style="edgeStyle=orthogonalEdgeStyle;rounded=0;orthogonalLoop=1;jettySize=auto;html=1;exitX=1;exitY=0.5;exitDx=0;exitDy=0;strokeWidth=4;" edge="1" parent="1" source="39" target="42">
                    <mxGeometry relative="1" as="geometry"/>
                </mxCell>
                <mxCell id="39" value="&lt;span style=&quot;font-size: 20px&quot;&gt;在填入框中&lt;br&gt;敲擊 Enter 鍵&lt;br&gt;&lt;/span&gt;" style="rounded=1;whiteSpace=wrap;html=1;fontFamily=微軟正黑體;fontSize=24;fontStyle=1" vertex="1" parent="1">
                    <mxGeometry x="320" y="270" width="160" height="70" as="geometry"/>
                </mxCell>
                <mxCell id="40" style="edgeStyle=orthogonalEdgeStyle;rounded=0;orthogonalLoop=1;jettySize=auto;html=1;exitX=1;exitY=0.5;exitDx=0;exitDy=0;entryX=0;entryY=0.5;entryDx=0;entryDy=0;strokeWidth=4;" edge="1" parent="1" source="41" target="39">
                    <mxGeometry relative="1" as="geometry"/>
                </mxCell>
                <mxCell id="41" value="&lt;span style=&quot;font-size: 20px&quot;&gt;填入待辦事項&lt;/span&gt;" style="rounded=1;whiteSpace=wrap;html=1;fontFamily=微軟正黑體;fontSize=24;fontStyle=1" vertex="1" parent="1">
                    <mxGeometry x="65" y="270" width="160" height="70" as="geometry"/>
                </mxCell>
                <mxCell id="42" value="&lt;span style=&quot;font-size: 20px&quot;&gt;顯示新增的&lt;br&gt;待辦事項&lt;br&gt;&lt;/span&gt;" style="rounded=1;whiteSpace=wrap;html=1;fontFamily=微軟正黑體;fontSize=24;fontStyle=1" vertex="1" parent="1">
                    <mxGeometry x="575" y="270" width="160" height="70" as="geometry"/>
                </mxCell>
                <mxCell id="43" value="&lt;div style=&quot;&quot;&gt;&lt;span style=&quot;font-size: 20px&quot;&gt;&lt;font face=&quot;微軟正黑體&quot;&gt;&lt;b&gt;方案A&lt;/b&gt;&lt;/font&gt;&lt;/span&gt;&lt;/div&gt;" style="text;whiteSpace=wrap;html=1;align=center;" vertex="1" parent="1">
                    <mxGeometry x="325" y="30" width="150" height="30" as="geometry"/>
                </mxCell>
                <mxCell id="44" value="&lt;div&gt;&lt;span style=&quot;font-size: 20px&quot;&gt;&lt;font face=&quot;微軟正黑體&quot;&gt;&lt;b&gt;方案B&lt;/b&gt;&lt;/font&gt;&lt;/span&gt;&lt;/div&gt;" style="text;whiteSpace=wrap;html=1;align=center;" vertex="1" parent="1">
                    <mxGeometry x="325" y="210" width="150" height="30" as="geometry"/>
                </mxCell>
            </root>
        </mxGraphModel>
    </diagram>
</mxfile>